<svg width="426" height="426" viewBox="0 0 426 426" version="1.1" xmlns="http://www.w3.org/2000/svg" xmlns:xlink="http://www.w3.org/1999/xlink">
<title>job-opening</title>
<desc>Created using Figma</desc>
<g id="Canvas" transform="translate(-3179 4486)">
<g id="job-opening">
<g id="Image">
<mask id="mask0_outline_out">
<rect id="mask0_outline_inv" fill="white" x="-10" y="-10" width="426" height="426" transform="translate(3189 -4476)"/>
<use xlink:href="#path0_fill" fill="black" transform="translate(3189 -4476)"/>
</mask>
<g mask="url(#mask0_outline_out)">
<use xlink:href="#path1_stroke_2x" transform="translate(3189 -4476)" fill="#420420"/>
</g>
</g>
<g id="+">
<use xlink:href="#path2_fill" transform="translate(3348.66 -4321.67)" fill="#420420"/>
</g>
</g>
</g>
<defs>
<path id="path0_fill" d="M 0 0L 406 0L 406 406L 0 406L 0 0Z"/>
<path id="path1_stroke_2x" d="M 0 0L 0 -5L -5 -5L -5 0L 0 0ZM 406 0L 411 0L 411 -5L 406 -5L 406 0ZM 406 406L 406 411L 411 411L 411 406L 406 406ZM 0 406L -5 406L -5 411L 0 411L 0 406ZM -5 0L -5 10.15L 5 10.15L 5 0L -5 0ZM -5 30.45L -5 50.75L 5 50.75L 5 30.45L -5 30.45ZM -5 71.05L -5 91.35L 5 91.35L 5 71.05L -5 71.05ZM -5 111.65L -5 131.95L 5 131.95L 5 111.65L -5 111.65ZM -5 152.25L -5 172.55L 5 172.55L 5 152.25L -5 152.25ZM -5 192.85L -5 213.15L 5 213.15L 5 192.85L -5 192.85ZM -5 233.45L -5 253.75L 5 253.75L 5 233.45L -5 233.45ZM -5 274.05L -5 294.35L 5 294.35L 5 274.05L -5 274.05ZM -5 314.65L -5 334.95L 5 334.95L 5 314.65L -5 314.65ZM -5 355.25L -5 375.55L 5 375.55L 5 355.25L -5 355.25ZM -5 395.85L -5 406L 5 406L 5 395.85L -5 395.85ZM 0 411L 10.15 411L 10.15 401L 0 401L 0 411ZM 30.45 411L 50.75 411L 50.75 401L 30.45 401L 30.45 411ZM 71.05 411L 91.35 411L 91.35 401L 71.05 401L 71.05 411ZM 111.65 411L 131.95 411L 131.95 401L 111.65 401L 111.65 411ZM 152.25 411L 172.55 411L 172.55 401L 152.25 401L 152.25 411ZM 192.85 411L 213.15 411L 213.15 401L 192.85 401L 192.85 411ZM 233.45 411L 253.75 411L 253.75 401L 233.45 401L 233.45 411ZM 274.05 411L 294.35 411L 294.35 401L 274.05 401L 274.05 411ZM 314.65 411L 334.95 411L 334.95 401L 314.65 401L 314.65 411ZM 355.25 411L 375.55 411L 375.55 401L 355.25 401L 355.25 411ZM 395.85 411L 406 411L 406 401L 395.85 401L 395.85 411ZM 411 406L 411 395.85L 401 395.85L 401 406L 411 406ZM 411 375.55L 411 355.25L 401 355.25L 401 375.55L 411 375.55ZM 411 334.95L 411 314.65L 401 314.65L 401 334.95L 411 334.95ZM 411 294.35L 411 274.05L 401 274.05L 401 294.35L 411 294.35ZM 411 253.75L 411 233.45L 401 233.45L 401 253.75L 411 253.75ZM 411 213.15L 411 192.85L 401 192.85L 401 213.15L 411 213.15ZM 411 172.55L 411 152.25L 401 152.25L 401 172.55L 411 172.55ZM 411 131.95L 411 111.65L 401 111.65L 401 131.95L 411 131.95ZM 411 91.35L 411 71.05L 401 71.05L 401 91.35L 411 91.35ZM 411 50.75L 411 30.45L 401 30.45L 401 50.75L 411 50.75ZM 411 10.1501L 411 0L 401 0L 401 10.1501L 411 10.1501ZM 406 -5L 395.85 -5L 395.85 5L 406 5L 406 -5ZM 375.55 -5L 355.25 -5L 355.25 5L 375.55 5L 375.55 -5ZM 334.95 -5L 314.65 -5L 314.65 5L 334.95 5L 334.95 -5ZM 294.35 -5L 274.05 -5L 274.05 5L 294.35 5L 294.35 -5ZM 253.75 -5L 233.45 -5L 233.45 5L 253.75 5L 253.75 -5ZM 213.15 -5L 192.85 -5L 192.85 5L 213.15 5L 213.15 -5ZM 172.55 -5L 152.25 -5L 152.25 5L 172.55 5L 172.55 -5ZM 131.95 -5L 111.65 -5L 111.65 5L 131.95 5L 131.95 -5ZM 91.35 -5L 71.05 -5L 71.05 5L 91.35 5L 91.35 -5ZM 50.75 -5L 30.45 -5L 30.45 5L 50.75 5L 50.75 -5ZM 10.1501 -5L 0 -5L 0 5L 10.1501 5L 10.1501 -5ZM 0 0L 0 -10L -10 -10L -10 0L 0 0ZM 406 0L 416 0L 416 -10L 406 -10L 406 0ZM 406 406L 406 416L 416 416L 416 406L 406 406ZM 0 406L -10 406L -10 416L 0 416L 0 406ZM -10 0L -10 10.15L 10 10.15L 10 0L -10 0ZM -10 30.45L -10 50.75L 10 50.75L 10 30.45L -10 30.45ZM -10 71.05L -10 91.35L 10 91.35L 10 71.05L -10 71.05ZM -10 111.65L -10 131.95L 10 131.95L 10 111.65L -10 111.65ZM -10 152.25L -10 172.55L 10 172.55L 10 152.25L -10 152.25ZM -10 192.85L -10 213.15L 10 213.15L 10 192.85L -10 192.85ZM -10 233.45L -10 253.75L 10 253.75L 10 233.45L -10 233.45ZM -10 274.05L -10 294.35L 10 294.35L 10 274.05L -10 274.05ZM -10 314.65L -10 334.95L 10 334.95L 10 314.65L -10 314.65ZM -10 355.25L -10 375.55L 10 375.55L 10 355.25L -10 355.25ZM -10 395.85L -10 406L 10 406L 10 395.85L -10 395.85ZM 0 416L 10.15 416L 10.15 396L 0 396L 0 416ZM 30.45 416L 50.75 416L 50.75 396L 30.45 396L 30.45 416ZM 71.05 416L 91.35 416L 91.35 396L 71.05 396L 71.05 416ZM 111.65 416L 131.95 416L 131.95 396L 111.65 396L 111.65 416ZM 152.25 416L 172.55 416L 172.55 396L 152.25 396L 152.25 416ZM 192.85 416L 213.15 416L 213.15 396L 192.85 396L 192.85 416ZM 233.45 416L 253.75 416L 253.75 396L 233.45 396L 233.45 416ZM 274.05 416L 294.35 416L 294.35 396L 274.05 396L 274.05 416ZM 314.65 416L 334.95 416L 334.95 396L 314.65 396L 314.65 416ZM 355.25 416L 375.55 416L 375.55 396L 355.25 396L 355.25 416ZM 395.85 416L 406 416L 406 396L 395.85 396L 395.85 416ZM 416 406L 416 395.85L 396 395.85L 396 406L 416 406ZM 416 375.55L 416 355.25L 396 355.25L 396 375.55L 416 375.55ZM 416 334.95L 416 314.65L 396 314.65L 396 334.95L 416 334.95ZM 416 294.35L 416 274.05L 396 274.05L 396 294.35L 416 294.35ZM 416 253.75L 416 233.45L 396 233.45L 396 253.75L 416 253.75ZM 416 213.15L 416 192.85L 396 192.85L 396 213.15L 416 213.15ZM 416 172.55L 416 152.25L 396 152.25L 396 172.55L 416 172.55ZM 416 131.95L 416 111.65L 396 111.65L 396 131.95L 416 131.95ZM 416 91.35L 416 71.05L 396 71.05L 396 91.35L 416 91.35ZM 416 50.75L 416 30.45L 396 30.45L 396 50.75L 416 50.75ZM 416 10.1501L 416 0L 396 0L 396 10.1501L 416 10.1501ZM 406 -10L 395.85 -10L 395.85 10L 406 10L 406 -10ZM 375.55 -10L 355.25 -10L 355.25 10L 375.55 10L 375.55 -10ZM 334.95 -10L 314.65 -10L 314.65 10L 334.95 10L 334.95 -10ZM 294.35 -10L 274.05 -10L 274.05 10L 294.35 10L 294.35 -10ZM 253.75 -10L 233.45 -10L 233.45 10L 253.75 10L 253.75 -10ZM 213.15 -10L 192.85 -10L 192.85 10L 213.15 10L 213.15 -10ZM 172.55 -10L 152.25 -10L 152.25 10L 172.55 10L 172.55 -10ZM 131.95 -10L 111.65 -10L 111.65 10L 131.95 10L 131.95 -10ZM 91.35 -10L 71.05 -10L 71.05 10L 91.35 10L 91.35 -10ZM 50.75 -10L 30.45 -10L 30.45 10L 50.75 10L 50.75 -10ZM 10.1501 -10L 0 -10L 0 10L 10.1501 10L 10.1501 -10Z"/>
<path id="path2_fill" d="M 48.825 37.1L 85.75 37.1L 85.75 48.125L 48.825 48.125L 48.825 85.225L 36.925 85.225L 36.925 48.125L 0 48.125L 0 37.1L 36.925 37.1L 36.925 0L 48.825 0L 48.825 37.1Z"/>
</defs>
</svg>
